<svg version="1" xmlns="http://www.w3.org/2000/svg" width="1489.333" height="1489.333" viewBox="0 0 1117.000000 1117.000000"><path d="M545.5 3.5c-5.6 2.3-21.1 17.6-272.7 269.2C70.7 474.8 5.5 540.6 3.9 543.9c-4.5 9.5-4.2 21.1.7 30.2 1.7 3.1 85.8 87.8 269.2 271.1l266.7 266.7 7.4 2.2c5.6 1.7 8.7 2 13.2 1.5 12.9-1.3-6.2 17.1 283.5-272.8 250.8-250.9 267.3-267.6 268.8-272.3 2.7-8.5 2.9-12.7 1.2-19.6-.9-3.5-3.2-8.7-5.1-11.4-1.9-2.8-122.4-123.8-267.7-269.1C547.7-23.4 574.4 1.9 559 1.3c-6.2-.3-8.5.1-13.5 2.2zm251.3 316.8L1035 558.5 796.5 797 558 1035.5 319.5 797 81 558.5l238.2-238.2C450.3 189.2 557.7 82 558 82c.3 0 107.7 107.2 238.8 238.3z"/><path d="M546.8 162.5c-10 3.7-6.6-.8-141.3 184.9L276.7 524.9l-52.6.3-52.6.3-6.7 3.3c-12 5.9-18.2 16.1-18.1 29.7 0 11.8 4.7 20.9 14 27.2 10.1 6.8-23.5 6.3 401.4 6.1l384.4-.3 5.9-2.9c7.5-3.7 13.1-9.3 16.4-16.5 2.2-4.6 2.6-7.1 2.6-13.6 0-13.4-5.8-23.2-17.6-29.6l-6.3-3.4-53.6-.5-53.7-.5-128.1-176C641.6 251.7 582 170.8 579.7 168.7c-5.9-5.2-13.1-7.7-22-7.6-4 0-8.9.7-10.9 1.4zm56.6 245.9c24 63.7 43.5 116.1 43.3 116.3-.2.2-39.3.2-86.9.1l-86.4-.3L511.7 419c21-58 40.1-110.6 42.4-116.8 2.3-6.2 4.5-11 4.9-10.5.4.4 20.4 53 44.4 116.7zm-179.6 57.9L402.5 525H359l8.5-11.8c4.8-6.4 24-32.9 42.8-58.9 18.8-25.9 34.3-47 34.5-46.9.1.2-9.3 26.7-21 58.9zm332 55.4l2.4 3.3h-39.8l-20.7-54.9c-11.4-30.2-20.7-55.2-20.7-55.6 0-.4 17.2 22.8 38.1 51.6 21 28.8 39.3 53.9 40.7 55.6zM300.8 641.4c-10.5 3.8-18.1 11.2-21.4 21-2.6 7.6-1.6 19.6 2.1 26.4 3.3 6 8.4 11 14.7 14.4l4.3 2.3h525l5.3-2.9c6.6-3.7 11.7-9.2 14.9-16.3 2.3-4.9 2.5-6.5 2.1-14.6-.3-7.8-.8-10-3.3-14.6-3.3-6-8.7-11-15.4-14.3l-4.6-2.3-260-.2c-212.2-.2-260.7 0-263.7 1.1zM414.9 756.4c-9 3.2-15.5 9.2-19.5 18.1-7.3 15.9-.3 35.5 15.4 43.2l5.7 2.8h288l4.6-2.1c10.1-4.7 18-15.6 19.4-26.8.8-5.9-1.2-15.7-4.2-20.4-3.1-5-8.7-10.3-13.8-13l-5-2.7-143.5-.2c-115.6-.2-144.2 0-147.1 1.1z"/></svg>