<?xml version="1.0" standalone="no"?>
<!DOCTYPE svg PUBLIC "-//W3C//DTD SVG 20010904//EN"
 "http://www.w3.org/TR/2001/REC-SVG-20010904/DTD/svg10.dtd">
<svg version="1.0" xmlns="http://www.w3.org/2000/svg"
 width="1117.000000pt" height="1117.000000pt" viewBox="0 0 1117.000000 1117.000000"
 preserveAspectRatio="xMidYMid meet">
<metadata>
Created by potrace 1.11, written by Peter Selinger 2001-2013
</metadata>
<g transform="translate(0.000000,1117.000000) scale(0.100000,-0.100000)"
fill="#000000" stroke="none">
<path d="M5468 11145 c-21 -8 -57 -27 -80 -44 -24 -16 -1234 -1221 -2689
-2678 -2399 -2401 -2648 -2653 -2669 -2703 -30 -70 -32 -172 -6 -250 18 -53
114 -151 2694 -2732 2256 -2257 2684 -2681 2727 -2700 39 -18 68 -23 135 -23
164 0 -123 -272 2862 2713 2979 2979 2712 2697 2713 2857 0 160 264 -118
-2727 2871 -2570 2569 -2665 2663 -2721 2683 -67 25 -181 27 -239 6z m2495
-7937 l-2383 -2383 -2380 2380 -2380 2380 2382 2382 2383 2383 2380 -2380
2380 -2380 -2382 -2382z"/>
<path d="M5490 9557 c-57 -16 -105 -45 -149 -91 -18 -19 -606 -824 -1306
-1788 l-1272 -1753 -534 -5 -534 -5 -47 -24 c-64 -31 -126 -95 -157 -161 -22
-46 -26 -69 -26 -145 0 -78 4 -97 28 -146 32 -66 99 -132 165 -162 l47 -22
3885 0 3885 0 47 22 c63 29 134 96 166 158 24 44 27 61 27 150 0 90 -3 105
-28 153 -35 67 -90 122 -153 153 l-49 24 -536 3 -537 3 -1283 1762 c-706 969
-1299 1777 -1319 1796 -75 73 -217 107 -320 78z m539 -2463 c236 -627 432
-1147 436 -1156 7 -17 -38 -18 -860 -18 -850 0 -867 0 -862 19 2 11 193 537
423 1171 269 741 420 1146 426 1137 4 -8 201 -527 437 -1153z m-1794 -586
l-211 -583 -212 -3 c-117 -1 -212 0 -212 3 0 7 840 1165 844 1165 2 0 -92
-262 -209 -582z m2949 -45 l395 -543 -197 0 -197 0 -194 518 c-107 284 -201
533 -209 552 -8 19 -9 31 -4 25 6 -5 188 -254 406 -552z"/>
<path d="M3041 4769 c-102 -20 -190 -90 -238 -188 -24 -48 -28 -69 -28 -141 0
-71 4 -94 26 -141 34 -72 96 -134 168 -168 l56 -26 2605 0 2605 0 67 33 c279
137 236 548 -67 627 -53 13 -342 15 -2605 14 -1400 -1 -2565 -5 -2589 -10z"/>
<path d="M4153 3611 c-156 -54 -241 -182 -231 -346 8 -127 82 -231 204 -287
l49 -23 1430 0 1430 0 57 27 c69 32 135 96 168 163 21 42 25 64 25 145 0 84
-3 102 -28 152 -33 67 -90 121 -166 157 l-56 26 -1415 2 c-1340 2 -1418 2
-1467 -16z"/>
</g>
</svg>
