<?xml version="1.0" standalone="no"?>
<!DOCTYPE svg PUBLIC "-//W3C//DTD SVG 20010904//EN"
 "http://www.w3.org/TR/2001/REC-SVG-20010904/DTD/svg10.dtd">
<svg version="1.0" xmlns="http://www.w3.org/2000/svg"
 width="1117.000000pt" height="1117.000000pt" viewBox="0 0 1117.000000 1117.000000"
 preserveAspectRatio="xMidYMid meet">
<metadata>
Created by potrace 1.11, written by Peter Selinger 2001-2013
</metadata>
<g transform="translate(0.000000,1117.000000) scale(0.100000,-0.100000)"
fill="#000000" stroke="none">
<path d="M5468 11145 c-21 -8 -57 -27 -80 -44 -24 -16 -1234 -1221 -2689
-2678 -2399 -2401 -2648 -2653 -2669 -2703 -30 -70 -32 -172 -6 -250 18 -53
114 -151 2694 -2732 2256 -2257 2684 -2681 2727 -2700 39 -18 68 -23 135 -23
164 0 -123 -272 2862 2713 2979 2979 2712 2697 2713 2857 0 160 264 -118
-2727 2871 -2570 2569 -2665 2663 -2721 2683 -67 25 -181 27 -239 6z m2500
-3178 l2382 -2382 -2385 -2385 -2385 -2385 -2385 2385 -2385 2385 2382 2382
c1311 1311 2385 2383 2388 2383 3 0 1077 -1072 2388 -2383z"/>
<path d="M5524 9559 c-64 -8 -145 -51 -187 -99 -18 -20 -603 -824 -1302 -1788
l-1270 -1751 -530 -3 -530 -3 -57 -28 c-64 -32 -125 -94 -159 -165 -18 -37
-23 -65 -23 -132 -1 -77 2 -92 32 -152 37 -76 82 -120 162 -157 l55 -26 3875
0 3875 0 55 26 c77 36 121 77 161 151 32 58 34 70 34 153 0 78 -4 97 -28 147
-35 71 -110 140 -183 167 -53 20 -75 21 -577 22 l-522 0 -1270 1746 c-698 959
-1287 1765 -1308 1789 -45 51 -141 101 -207 106 -25 2 -68 1 -96 -3z m505
-2465 c236 -627 432 -1147 436 -1156 7 -17 -38 -18 -860 -18 -850 0 -867 0
-862 19 2 11 193 537 423 1171 269 741 420 1146 426 1137 4 -8 201 -527 437
-1153z m-1794 -586 l-211 -583 -212 -3 c-117 -1 -212 0 -212 3 0 7 840 1165
844 1165 2 0 -92 -262 -209 -582z m2949 -45 l395 -543 -197 0 -197 0 -194 518
c-107 284 -201 533 -209 552 -8 19 -9 31 -4 25 6 -5 188 -254 406 -552z"/>
<path d="M2999 4756 c-185 -66 -275 -275 -195 -452 34 -76 93 -134 171 -171
l60 -28 2590 0 c2486 0 2592 1 2643 18 70 25 153 102 189 175 59 120 26 290
-72 381 -24 22 -63 50 -87 63 l-43 23 -2610 2 c-2117 2 -2617 0 -2646 -11z"/>
<path d="M4171 3614 c-69 -18 -108 -43 -161 -100 -64 -70 -84 -123 -84 -224 0
-65 5 -96 21 -132 30 -67 96 -133 166 -168 l60 -30 1431 0 1431 0 60 29 c69
32 137 100 168 169 33 72 31 198 -4 272 -47 97 -121 158 -224 185 -87 22
-2780 22 -2864 -1z"/>
</g>
</svg>
